<?xml version="1.0" encoding="utf-8"?>
<!-- Generator: Adobe Illustrator 23.0.1, SVG Export Plug-In . SVG Version: 6.00 Build 0)  -->
<svg version="1.1" id="Layer_1" xmlns="http://www.w3.org/2000/svg" xmlns:xlink="http://www.w3.org/1999/xlink" x="0px" y="0px"
	 viewBox="0 0 1200 1200" style="enable-background:new 0 0 1200 1200;" xml:space="preserve">
<style type="text/css">
	.st0{fill:#1E1E1C;}
</style>
<g id="lsfIWv.tif">
	<g>
		<path class="st0" d="M301.27,1094.74c-6.98-2.59-14.42-2.21-21.63-3.27c-40.59-5.97-78.94-18.72-115.33-37.49
			c-3.56-1.84-6.63-2.12-10.47-0.94c-34.07,10.48-68.2,20.76-102.31,31.13c-2.88,0.88-5.33,2.37-5.32-2.98
			c0.14-65.91,0.08-131.81,0.09-197.72c0-0.58,0.2-1.16,0.52-2.87c7.72,4.97,15.03,9.67,22.34,14.37
			c43.94,28.18,86.89,57.92,131.91,84.39c28.67,16.85,58.05,32.29,90.7,40.19c14.77,3.58,29.72,5.11,44.82,2
			c5.71-1.18,11.11-3.22,16-6.42c15.55-10.17,17.36-29.59,3.83-42.33c-11.1-10.46-25.08-15.66-39.09-20.69
			c-26.48-9.51-54.23-14.13-81.36-21.12c-42.31-10.91-83.42-24.88-120.39-48.87c-30.35-19.7-55.1-44.54-65.84-80.1
			c-17.98-59.51-1.41-130.92,76.53-162.18c33.65-13.5,68.86-18.18,104.75-18.39c47.62-0.28,94.19,6.27,138.97,23.24
			c9.45,3.58,18.78,7.54,27.51,12.63c3.43,2,6.18,2,9.74,0.63c27.28-10.55,54.63-20.93,81.96-31.33c1.68-0.64,3.43-1.1,5.2-1.66
			c0.71,5.49,0.98,172.25,0.32,184.48c-2.64,0.54-3.99-1.68-5.68-2.88c-32.66-23.15-64.15-47.98-97.63-69.94
			c-40.14-26.32-84.17-42.61-132.23-46.78c-14.35-1.24-28.85-2-42.92,2.88c-7.95,2.75-14.15,7.17-15.34,16
			c-1.25,9.24,2.46,16.47,10.22,21.69c11.99,8.07,25.63,12.15,39.25,16.19c31.63,9.39,64.18,15.16,95.85,24.41
			c39.03,11.4,77.6,23.91,112.96,44.54c25.56,14.91,47.75,33.38,61.16,60.5c25.94,52.46,11.19,127.1-32.36,166.5
			c-27.83,25.18-61.1,38.57-97.24,45.95c-13.34,2.73-26.8,4.76-40.45,5.18c-0.86,0.03-1.61,0.15-1.95,1.08
			C332.68,1094.74,316.97,1094.74,301.27,1094.74z"/>
		<path class="st0" d="M670.13,238.49c12.45-22.58,27.46-43.29,47.14-60.07c53.09-45.26,113.56-59.97,180.65-39.55
			c43.35,13.19,69.3,45.11,84.04,86.93c9.86,27.97,13.1,56.99,13.18,86.43c0.16,55.58,0.11,111.16,0.03,166.74
			c-0.01,3.93,0.99,6.95,3.52,10.08c24.55,30.33,48.92,60.8,73.34,91.25c1.28,1.6,2.48,3.27,4.2,5.55c-99,0-197.37,0-295.99,0
			c-1-1.69,0.66-3.17,1.32-4.71c9.34-21.8,18.72-43.58,28.24-65.3c1.37-3.13,1.91-6.21,1.91-9.56
			c-0.04-61.37-0.01-122.73-0.07-184.1c-0.01-10.53-0.84-20.99-3.16-31.34c-8.96-39.93-37.02-48.65-70.7-34.71
			c-19.65,8.13-31.72,24.49-41.41,42.7c-8.18,15.36-13.75,31.71-18.13,48.51c-0.8,3.07-0.68,6.13-0.68,9.22
			c-0.02,47.73,0.01,95.46-0.1,143.19c-0.01,3.58,1.12,6.23,3.34,8.93c20.45,24.87,40.8,49.83,61.16,74.77
			c0.47,0.58,0.74,1.34,1.1,2.02c-1.64,1.54-3.36,0.85-4.88,0.85c-89.47,0.04-178.93,0.03-268.4,0.03c-6.94,0-6.97-0.02-4.26-6.3
			c8.9-20.63,17.74-41.28,26.8-61.84c1.88-4.26,2.79-8.44,2.78-13.1c-0.09-60.75-0.07-121.49-0.05-182.24
			c0-12.22-0.83-24.33-4.2-36.16c-8.85-31.09-32.33-43.58-63.08-33.45c-19.04,6.27-32.18,19.64-42.55,36.11
			c-11.53,18.34-18.27,38.67-23.95,59.39c-0.48,1.74-0.3,3.69-0.3,5.54c-0.01,48.35,0.02,96.7-0.07,145.05
			c-0.01,3.49,0.82,6.19,3.07,8.97c20.15,24.86,40.14,49.84,60.17,74.79c0.5,0.62,0.91,1.32,1.39,2.02
			c-1.71,2.18-3.94,1.16-5.8,1.16c-94.63,0.06-189.26,0.06-283.89,0.06c-6.78,0-6.77,0-4.04-6.17
			c14.85-33.56,29.66-67.14,44.57-100.67c1.46-3.28,2.24-6.52,2.24-10.14c-0.06-67.77-0.07-135.54,0.03-203.31
			c0.01-3.56-1.04-6.18-3.35-8.87c-30.21-35.29-60.31-70.68-90.43-106.05c-1.05-1.23-2.03-2.51-3.03-3.75
			c1.33-2.09,3.15-1.09,4.59-1.1c84.09-0.06,168.19-0.01,252.28-0.19c5.36-0.01,6.34,1.65,6.3,6.6
			c-0.21,32.02-0.09,64.05-0.08,96.08c0,1.36,0,2.71,0,5.8c5.49-9.87,9.8-18.4,14.81-26.5c25.78-41.74,60.31-73.19,107.67-88.46
			c42.88-13.82,85.81-14.21,127.4,4.74c38.88,17.71,60.75,50.02,73.15,89.7C668.43,235.6,668.21,237.43,670.13,238.49z"/>
		<path class="st0" d="M1159.08,1077.63c-3.54,0-5.77,0-8.01,0c-91.53,0-183.05-0.04-274.58,0.13c-5.18,0.01-5.89-1.33-5.46-6.23
			c2.12-23.85,3.69-47.75,5.64-71.61c0.26-3.21-0.88-5.52-2.55-7.95c-19.39-28.23-38.8-56.45-58.04-84.78
			c-2.07-3.04-3.54-3.65-5.94-0.76c-0.13,0.16-0.3,0.29-0.47,0.4c-13.65,8.3-19.55,19.51-17.68,36.23
			c1.78,15.92,0.49,32.19,0.31,48.3c-0.04,3.96,1.02,7.02,3.5,10.12c18.95,23.7,37.75,47.52,56.58,71.32
			c0.99,1.25,1.9,2.55,3.57,4.8c-3.13,0-5.28,0-7.43,0c-94.42,0.01-188.84-0.02-283.26,0.13c-5.67,0.01-6.47-0.81-3.98-6.21
			c15.72-34.05,31.05-68.29,46.61-102.42c1.32-2.9,1.97-5.73,1.97-8.91c-0.05-66.94-0.06-133.88,0.02-200.82
			c0-3.53-1.02-6.13-3.29-8.85c-29.61-35.51-59.1-71.13-88.58-106.76c-1.11-1.35-2.88-2.36-3-5.17c2.25,0,4.42,0,6.59,0
			c88.01,0,176.03,0.05,264.04-0.13c5.43-0.01,6.89,1.21,6.87,6.75c-0.2,64.87-0.12,129.75-0.11,194.62c0,0.78,0,1.56,0,3.66
			c3.85-3.53,6.98-6.3,9.99-9.19c39.47-37.92,78.9-75.89,118.46-113.71c2.89-2.76,2.81-4.38,0.67-7.58
			c-15.15-22.64-30.04-45.46-45-68.22c-1.34-2.03-2.62-4.1-4.35-6.82c80.8,0,160.87,0,242.33,0c-11.19,9.84-21.48,18.9-31.78,27.94
			c-43.88,38.57-87.71,77.2-131.75,115.59c-3.99,3.48-1.76,5.36,0.13,7.98c49.8,68.91,99.59,137.82,149.39,206.73
			c18.13,25.09,36.25,50.2,54.36,75.3C1156.04,1073.14,1157.15,1074.82,1159.08,1077.63z"/>
	</g>
</g>
</svg>
