<svg id="Layer_1" data-name="Layer 1" xmlns="http://www.w3.org/2000/svg" viewBox="0 0 658.75 578.48"><title>logo</title><path d="M71.43,48.39s-1.94,4.84-8.7,6.45S45.66,50,48.88,42.27s8-6.44,37-5.8,125.64,1.94,125.64,1.94,6.77-.65,10.95,2.57,1.29,17.72-10,14.5c0,0-3.87-1.61-3.55,12.56s-.64,29.64-.64,29.64,20.62-28.35,35.76-38,46.71-29.32,66.68-29.32,55.09,4.51,83.44,44.46c0,0,49.93-40.27,64.43-44.13S505,18.76,525,32.61,565.6,63.53,571.4,97s-11.6,42.2.64,84.72,6.77,52.83,30.29,72.16S620,269.06,620,269.06s9.67-7.4,14.82-.64,5.8,14.82-.64,17.4S526,292.9,526,292.9l-48-.32s-17.4,1.93-21.59-2.58-4.83-12.88,3.55-17.39,12.56,4.51,12.56,4.51,2.58-4.19,4.19-15.14,5.8-68.3,4.51-85.37,4.19-46.39-14.18-65.72-32.53-15.14-40.59-2.58-18,29.32-22.22,56.7-1.29,56.05.64,67.65,12.89,32.54,20.94,41.88c0,0,6.76-9,12.89-3.86S450,288.39,439,289s-155.28,2.25-155.28,2.25-9,1.61-9.66-7.08.32-13.21,11.6-13.21a98.06,98.06,0,0,0,10.95-39.63c1.29-22.87,1.61-76.67-2.26-93.42s-19.65-36.72-30.6-36.4-29.64,8-35.11,22.87-6.77,32.54-7.41,65.4,3.22,57.66,13.2,69.58,9.67,13.53,9.67,13.53,0-8.38,6.44-7.41,14.18,5.16,9,14.18-9.66,9.34-21.9,9-98.26.64-115,1-33.18,5.8-41.24,5.8S68.53,299.67,65,288.72s2.26-17.72,6.77-19.33,9-1,13.85,4.83c0,0,8.7-4.19,17.08-19s10.63-38.33,10.95-50.25,1.29-55.09,1-71.84,5.79-26.74-6.45-43.49S71.43,48.39,71.43,48.39Z" transform="translate(-27.61 -24.81)"/><path d="M230.89,328s10.39,9.9,21.26,7,15.71-5.31,20.06-7.73,3.62-2.17,3.62-2.17-4.83-14.74,13.05-14.74,13,13.77,12.08,20.54-4.83,24.88-4.11,32.13-.72,24.65,1.93,33.83-2.65,23.92-12.08,17.88-44.7-28-53.88-33.59-39.14-21.74-54.6-23.19-31.17-5.08-40.59-2.18S120,373.2,135,381.17s28.51,8.94,48.08,11.12,56.54,10.63,71,19.32,37,13.05,47.84,33.59,17.4,41.07,16.67,51.7-5.07,30.69-16.42,42.53S265.92,574,257.47,577.6s-23,18.12-68.86,15.95-54.12-12.57-74.9-16.19-45.91.72-50.26,4.11c0,0,7.49,15.22-2.17,19.57S41,603,37.6,597.9s-5.07-7.25-3.14-19.57-7.49-37-6.76-49.05-2.9-37,6.76-43.25,20.54-11.11,43.25,8.7,42,29.48,57.74,36,21.75,14.5,36,16.19,30.21,7,37.94-1.69,10.87-8.22,8.94-16-6.77-13.77-18.85-16.19-42.52-5.56-59.19-11.84-68.14-25.37-78-39.86-25.37-34.8-28.76-52.92,2.18-48.8,19.33-64.26S121,308,150.92,309.9,212.53,321,230.89,328Z" transform="translate(-27.61 -24.81)"/><path d="M327.53,341.79s-10.63,5.07-13.28-4.83S314,320.29,325.84,321s58-1.45,87-1.69,51.95,1,51.95,1,20.05-1,21,7.73-4.59,14.49-12.08,11.11c0,0-4.59-1.21-3.87,15.71S473,423.7,473,423.7s5.8,11.83,15.23,4.59S521.79,400,529,390.11s18.36-21,15.7-30.92-6.76-11.6-10.15-15.95c0,0-18.12,3.62-17.87-10.39s8-12.08,19.81-11.84,114.76-1,114.76-1,13.05-.72,13.05,5.56-3.87,13-13.77,9.18L570.35,403.4s-9.18,5.56-2.66,13.77,59,77.56,70.31,91.81,23,35.28,26.82,43.49,2.66,6.77,2.66,6.77a8.16,8.16,0,0,1,8.94-1.45c5.56,2.17,10.39,5.8,9.91,9.9s2.17,8.7-21.27,9.19-140.37-1.45-140.37-1.45-10.15.24-7.73-10.63,8.45-9.67,8.45-9.67,0-19.57-4.83-29.48-20.05-32.13-22-35-4.83-9.9-13-9.42S474,486,474,493s-1.45,31.41,2.42,39.62,10.14,20.54,15,24.65,3.86,2.9,3.86,2.9,5.56-4.84,9.91-1.45,6.28,5.31,5.07,10.14-6.52,7.25-17.64,6.77-142.06,2.66-142.06,2.66h-8.22s-8.94,1.69-6.52-11.12,14.74-7.73,14.74-7.73,19.81-43.25,19.33-63.78-7-41.8-5.8-59.68,5.55-28,1.45-40.35S327.53,341.79,327.53,341.79Z" transform="translate(-27.61 -24.81)"/></svg>